<svg xmlns="http://www.w3.org/2000/svg" width="235.283" height="42" viewBox="0 0 235.283 42"><g transform="translate(-112 -22)"><text transform="translate(112 57)" fill="#2a2a2a" font-size="35" font-family="Lato-Black, Lato" font-weight="800"><tspan x="0" y="0">Trans-Tads</tspan></text><g transform="translate(48.467 -59.346)"><path d="M62.486,166.741c-.884-2.227-7.639-3.04-11.031-1.72-2.236.87-8.916,3.546-8.916,3.546L28.06,174.324l-16.45,6.542L.739,176.178a.53.53,0,0,0-.583.863l7.592,7.56a1.907,1.907,0,0,0,.153,1.335,1.3,1.3,0,0,0,.97,2.421c.075.08.477.473.907.889a2.478,2.478,0,0,0,2.63.528l21.938-8.607L29,186.973a1,1,0,0,0,.023,1.374l.526.533a1,1,0,0,0,1.308.092l18.12-13.684,5.771-2.269C60.337,170.919,63.371,168.969,62.486,166.741Z" transform="translate(236.179 -72.039)" fill="#119fef"/><path d="M196.595,202.152l5.454.4,12.742-5.067-18.21,1.94a1,1,0,0,0-.892.962c-.007.25-.014.5-.02.749A1,1,0,0,0,196.595,202.152Z" transform="translate(62.577 -101.406)" fill="#119fef"/></g></g></svg>