<svg xmlns="http://www.w3.org/2000/svg" width="192" height="120" viewBox="0 0 192 120"><g transform="translate(-852.323 -453.475)"><text transform="translate(852.323 529.475)" fill="#2a2a2a" font-size="77" font-family="Lato-Black, Lato" font-weight="800"><tspan x="0" y="0">Trans</tspan></text><text transform="translate(866.323 566.475)" fill="#2a2a2a" font-size="31" font-family="Lato-Black, Lato" font-weight="800"><tspan x="0" y="0">TADS</tspan></text><path d="M87.359,167.679c-1.236-3.113-10.679-4.251-15.422-2.4-3.126,1.217-12.466,4.958-12.466,4.958L39.23,178.28l-23,9.146-15.2-6.554a.742.742,0,0,0-.815,1.206l10.614,10.569a2.666,2.666,0,0,0,.213,1.867A1.824,1.824,0,0,0,12.4,197.9c.1.111.667.661,1.268,1.242a3.464,3.464,0,0,0,3.677.738l30.67-12.033-7.469,8.118a1.4,1.4,0,0,0,.032,1.922l.736.745a1.393,1.393,0,0,0,1.829.129l25.332-19.132,8.069-3.172C84.355,173.52,88.6,170.793,87.359,167.679Z" transform="translate(956.502 372.436)" fill="#119fef"/><path d="M196.963,204.01l7.625.558,17.814-7.084L196.944,200.2a1.393,1.393,0,0,0-1.247,1.345c-.01.349-.019.7-.028,1.047A1.394,1.394,0,0,0,196.963,204.01Z" transform="translate(791.684 344.555)" fill="#119fef"/></g></svg>